# xmcd
#
# Track frame offsets: 
#        150
#        12083
#        24285
#        34574
#        53087
#        64941
#        77499
#        93060
#        108025
#        123807
#        142512
#        154837
#        165868
#        180913
#        198122
#
# Disc length: 2797 seconds
#
# Revision: 5
# Processed by: cddbd v1.5.2PL0 Copyright (c) Steve Scherf et al.
# Submitted via: ExactAudioCopy v0.99pb4
#
DISCID=920aeb0f
DTITLE=Various Artist - Superstars of Country - Hello Darlin' (2 of 2)
DYEAR=2005
DGENRE=Oldies
TTITLE0=Loretta Lynn - One's on the Way
TTITLE1=Conway Twitty - Linda on My Mind
TTITLE2=Billy "Crash" Craddock - Rub it In
TTITLE3=Don Williams - I Believe in You
TTITLE4=Roger Miller - Little Green Apples
TTITLE5=Donna Fargo - Funny Face
TTITLE6=The Statler Brothers - Elizabeth
TTITLE7=B.J. Thomas - (Hey Won't You Play) Another Somebody Done Someb
TTITLE7=ody Wrong Song
TTITLE8=Ray Stevens - Everything is Beautiful
TTITLE9=Tom T. Hall - Old Dogs, Children and Watermelon Wine
TTITLE10=Freddy Fender - Wasted Days and Wasted Nights
TTITLE11=Conway Twitty - Hello Darlin'
TTITLE12=Roy Clark - Yesterday, When I Was Young
TTITLE13=C.W. McCall - Convoy
TTITLE14=The Osborne Brothers - Rocky Top
EXTD=
EXTT0=
EXTT1=
EXTT2=
EXTT3=
EXTT4=
EXTT5=
EXTT6=
EXTT7=
EXTT8=
EXTT9=
EXTT10=
EXTT11=
EXTT12=
EXTT13=
EXTT14=
PLAYORDER=
